<?xml version="1.0" encoding="UTF-8" standalone="no"?>
<!-- Created with Inkscape (http://www.inkscape.org/) -->

<svg
   xmlns:dc="http://purl.org/dc/elements/1.1/"
   xmlns:cc="http://creativecommons.org/ns#"
   xmlns:rdf="http://www.w3.org/1999/02/22-rdf-syntax-ns#"
   xmlns:svg="http://www.w3.org/2000/svg"
   xmlns="http://www.w3.org/2000/svg"
   xmlns:sodipodi="http://sodipodi.sourceforge.net/DTD/sodipodi-0.dtd"
   xmlns:inkscape="http://www.inkscape.org/namespaces/inkscape"
   version="1.1"
   id="svg42"
   xml:space="preserve"
   width="666.55597"
   height="421.43732"
   viewBox="0 0 666.55597 421.43731"
   sodipodi:docname="Geophysics - 2015 - Microseismic rupture propagation imaging.pdf"
   inkscape:export-filename="/Users/jonas/Documents/GitHub/jasonski.github.io/Figs/Basel_PB.png"
   inkscape:export-xdpi="300"
   inkscape:export-ydpi="300"><metadata
     id="metadata48"><rdf:RDF><cc:Work
         rdf:about=""><dc:format>image/svg+xml</dc:format><dc:type
           rdf:resource="http://purl.org/dc/dcmitype/StillImage" /></cc:Work></rdf:RDF></metadata><defs
     id="defs46"><clipPath
       clipPathUnits="userSpaceOnUse"
       id="clipPath296"><path
         d="M 50.967,452.353 H 550.828 V 136.346 H 50.967"
         id="path294" /></clipPath><clipPath
       clipPathUnits="userSpaceOnUse"
       id="clipPath350"><path
         d="M 0,0 H 593.97 V 782.99 H 0 Z"
         id="path348" /></clipPath><clipPath
       clipPathUnits="userSpaceOnUse"
       id="clipPath364"><path
         d="M 0,0 H 593.97 V 782.99 H 0 Z"
         id="path362" /></clipPath><clipPath
       clipPathUnits="userSpaceOnUse"
       id="clipPath374"><path
         d="M 0,0 H 593.97 V 782.99 H 0 Z"
         id="path372" /></clipPath><clipPath
       clipPathUnits="userSpaceOnUse"
       id="clipPath378"><rect
         style="fill:#cccccc;fill-opacity:0.741135;stroke:#fd0000;stroke-width:3.75;stroke-dasharray:22.5, 7.5;stroke-opacity:0.521569"
         id="rect380"
         width="499.91699"
         height="316.078"
         x="50.967003"
         y="-452.35199"
         transform="scale(1,-1)" /></clipPath><clipPath
       clipPathUnits="userSpaceOnUse"
       id="clipPath382"><rect
         style="fill:#cccccc;fill-opacity:0.741135;stroke:#fd0000;stroke-width:3.75;stroke-dasharray:22.5, 7.5;stroke-opacity:0.521569"
         id="rect384"
         width="499.91699"
         height="316.078"
         x="50.967003"
         y="-452.35199"
         transform="scale(1,-1)" /></clipPath></defs><sodipodi:namedview
     pagecolor="#ffffff"
     bordercolor="#666666"
     borderopacity="1"
     objecttolerance="10"
     gridtolerance="10"
     guidetolerance="10"
     inkscape:pageopacity="0"
     inkscape:pageshadow="2"
     inkscape:window-width="640"
     inkscape:window-height="480"
     id="namedview44"
     showgrid="false" /><g
     id="g50"
     inkscape:groupmode="layer"
     inkscape:label="Geophysics - 2015 - Microseismic rupture propagation imaging"
     transform="matrix(1.3333333,0,0,-1.3333333,-67.956002,603.13597)"><g
       id="g340"
       clip-path="url(#clipPath378)"><g
         id="g342"><g
           id="g344"><g
             id="g346"
             clip-path="url(#clipPath350)"><text
               transform="matrix(0,1,1,0,10,122.34)"
               style="font-variant:normal;font-weight:normal;font-size:10px;font-family:Times;-inkscape-font-specification:Times-Roman;writing-mode:lr-tb;fill:#000000;fill-opacity:1;fill-rule:nonzero;stroke:none"
               id="text354"><tspan
                 x="0 7.2199998 12.22 19.440001 24.440001 27.219999 32.220001 36.66 41.66 46.099998 51.099998 53.599998 58.599998 63.599998 66.379997 71.379997 76.379997 79.160004 84.160004 89.160004 91.660004 94.440002 99.440002 101.94 106.94 111.94 116.94 119.44 124.44 129.44 131.94 136.94 141.94 146.94 149.44 154.44 159.44 161.94 164.44 171.11 175.55 180.55 183.33 187.22 190 193.33 196.11 201.11 206.11 208.89 211.67 216.67 221.67 224.17 228.06 233.06 238.06 240.84 245.28 249.72 252.5 255 257.78 262.78 265.28 270.84 276.95001 284.17001 286.67001 289.45001 292.23001 296.67001 301.10999 306.10999 310 314.44 316.94 321.94 325.26999 327.76999 332.20999 337.20999 342.20999 347.20999 350.54001 353.32001 358.32001 363.32001 366.10001 368.88 371.38 375.26999 379.70999 384.14999 386.64999 392.76001 397.20001 400.53 408.31 412.20001 414.70001 419.70001 423.03 425.53 432.75 436.64001 441.07999 443.57999 448.01999 450.79999 453.29999 458.29999 461.07999 463.85999 468.85999 471.64001 474.42001 477.20001 479.98001 482.76001 487.76001 491.09 495.53 498.85999 503.85999 506.35999 510.25 514.69 519.69 522.19 527.19 530.52002 535.52002"
                 y="0"
                 sodipodi:role="line"
                 id="tspan352">Downloaded 12/22/15 to 171.64.170.22. Redistribution subject to SEG license or copyright; see Terms of Use at http://library.seg.org/</tspan></text></g></g></g><g
         id="g356"><g
           id="g358"><g
             id="g360"
             clip-path="url(#clipPath364)" /></g></g><g
         id="g366"><g
           id="g368"><g
             id="g370"
             clip-path="url(#clipPath374)" /></g></g></g></g></svg>
